<svg width="400" height="400" viewBox="0 0 400 400" fill="none" xmlns="http://www.w3.org/2000/svg">
<path d="M106.336 318.408C101.137 318.408 96.1655 319.384 91.5859 321.161C81.9694 311.775 68.8801 305.997 54.4532 305.997C24.9317 305.997 1 330.175 1 360H65.1668H107.903H147.503C147.504 337.029 129.072 318.408 106.336 318.408Z" fill="url(#paint0_linear)"/>
<path d="M195.699 238.387L247.72 240.613C256.806 240.344 264.387 247.441 264.656 256.527C264.71 257.226 259.301 346.452 259.301 346.452L236.398 345.914L234.785 274.785L212.204 281.129L195.699 238.387Z" fill="#871FFF"/>
<path d="M345 234.355H52.7957V239.624H345V234.355Z" fill="#131415"/>
<path d="M344.839 239.677H337.043V358.817H344.839V239.677Z" fill="#D6219C"/>
<path d="M303.602 239.677H295.806V358.817H303.602V239.677Z" fill="#D6219C"/>
<path d="M60.8064 239.677H53.0107V358.817H60.8064V239.677Z" fill="#D6219C"/>
<path d="M102.043 239.677H94.2473V358.817H102.043V239.677Z" fill="#D6219C"/>
<path d="M287.419 110.591H110.43V216.559H287.419V110.591Z" fill="#2B2B2B"/>
<path d="M288.979 218.118H108.871V109.032H288.979V218.118ZM111.989 215H285.86V112.151H111.989V215Z" fill="#2B2B2B"/>
<path fill-rule="evenodd" clip-rule="evenodd" d="M177.312 39.8387H149.032C141.344 39.8387 135.108 46.0752 135.161 53.7634V60.215C135.161 67.8494 141.344 74.086 149.032 74.086H161.543L164.411 116.101L168.273 115.837L165.423 74.086H177.312C184.946 74.086 191.183 67.9032 191.183 60.215V53.7097C191.183 46.0752 185 39.8387 177.312 39.8387ZM280.43 74.086H264.09L256.021 116.309L252.219 115.583L260.149 74.086H252.15C244.462 74.086 238.28 67.8494 238.28 60.215V53.7634C238.28 46.0752 244.516 39.8387 252.15 39.8387H280.43C288.118 39.8387 294.301 46.0752 294.301 53.7097V60.215C294.301 67.9032 288.064 74.086 280.43 74.086ZM81.5591 145C83.3333 147.151 85.6989 148.333 88.2258 148.333C88.7097 148.333 89.1935 148.28 89.6774 148.172C92.6881 147.634 95.1075 145.591 96.129 142.742C96.8279 140.699 97.3656 136.559 93.0107 131.559C92.9838 131.532 92.9435 131.478 92.9032 131.425C92.8629 131.371 92.8226 131.317 92.7957 131.29C98.5484 129.247 106.183 128.065 115.645 127.688L115.484 123.817C103.333 124.301 95.215 126.022 89.8924 128.226C84.8863 123.163 78.1147 117.365 72.6869 112.902C73.312 111.323 73.6559 109.601 73.6559 107.796V101.29C73.6559 93.6559 67.4731 87.4193 59.7849 87.4193H31.5054C23.871 87.4193 17.6882 93.6559 17.6344 101.29V107.796C17.6344 115.43 23.8172 121.667 31.5054 121.667H59.7849C64.2281 121.667 68.1978 119.572 70.7402 116.306C75.6736 120.38 81.6012 125.47 86.1828 130C82.5806 132.097 80.8602 134.355 80.1075 136.075C78.7634 139.032 79.2473 142.258 81.5591 145ZM83.7096 137.634C84.4623 135.914 86.2903 134.301 89.0322 132.903C89.4085 133.333 89.7847 133.709 90.1072 134.032L90.1075 134.032C92.4193 136.613 93.2258 139.247 92.4731 141.344C91.9355 142.849 90.6451 143.979 89.0322 144.247C88.0645 144.462 86.2365 144.462 84.6236 142.473C83.2795 140.914 82.957 139.247 83.7096 137.634ZM47.8495 169.032H76.0753C83.7635 169.032 89.9463 175.269 89.9463 182.903V189.409C89.9463 189.973 89.9127 190.529 89.8474 191.075H114.301V194.946H88.798C86.6565 199.861 81.7524 203.28 76.0753 203.28H47.7957C40.1076 203.28 33.9248 197.043 33.9248 189.409V182.903C33.9248 175.269 40.1613 169.032 47.8495 169.032ZM353.226 175.323H324.946C317.312 175.323 311.129 181.505 311.075 189.247V191.075H284.409V194.946H311.075V195.699C311.075 203.333 317.258 209.57 324.946 209.57H353.226C360.86 209.57 367.097 203.387 367.097 195.699V189.194C367.097 181.559 360.914 175.323 353.226 175.323ZM370.269 86.3979H341.989C334.301 86.3979 328.064 92.5807 328.118 100.269V106.774C328.118 108.449 328.416 110.057 328.962 111.547C323.31 116.136 315.599 122.641 310.054 128.28C304.731 126.075 296.613 124.355 284.462 123.871L284.301 127.742C293.71 128.118 301.452 129.301 307.151 131.344C307.141 131.354 307.129 131.367 307.117 131.382C307.112 131.389 307.106 131.396 307.101 131.403C307.082 131.426 307.063 131.452 307.043 131.478C307.003 131.532 306.962 131.586 306.936 131.613C302.527 136.667 303.118 140.753 303.817 142.796C304.839 145.645 307.312 147.742 310.269 148.226C310.753 148.28 311.237 148.333 311.72 148.333C314.247 148.333 316.667 147.151 318.387 145.054C320.645 142.312 321.183 139.14 319.839 136.129C319.032 134.409 317.366 132.151 313.763 130.054C318.87 125.005 325.633 119.275 330.837 115.024C333.36 118.43 337.407 120.645 341.989 120.645H370.269C377.903 120.645 384.14 114.462 384.14 106.774V100.269C384.14 92.6344 377.957 86.3979 370.269 86.3979ZM310.968 132.903C310.786 133.111 310.605 133.305 310.429 133.494C310.241 133.696 310.06 133.891 309.893 134.086C307.634 136.667 306.774 139.301 307.527 141.398C308.065 142.903 309.409 143.978 310.968 144.301C311.936 144.462 313.817 144.462 315.376 142.527C316.72 140.914 316.989 139.301 316.29 137.688C315.538 135.968 313.71 134.355 310.968 132.903Z" fill="#FEE3DD"/>
<path d="M203.441 123.817H122.742V127.688H203.441V123.817Z" fill="#5E41F4"/>
<path d="M275.108 123.817H220.914V127.688H275.108V123.817Z" fill="#FFA300"/>
<path d="M164.516 135H122.742V138.871H164.516V135Z" fill="#FF288C"/>
<path d="M275.108 135H181.989V138.871H275.108V135Z" fill="#3ACDFF"/>
<path d="M181.935 146.237H122.742V150.108H181.935V146.237Z" fill="#5E41F4"/>
<path d="M275.054 146.237H213.602V150.108H275.054V146.237Z" fill="#FF75C2"/>
<path d="M173.871 157.473H122.742V161.344H173.871V157.473Z" fill="#FFA300"/>
<path d="M275.108 157.473H220.914V161.344H275.108V157.473Z" fill="#FF288C"/>
<path d="M178.71 168.656H122.742V172.527H178.71V168.656Z" fill="#FF288C"/>
<path d="M275.107 168.656H218.226V172.527H275.107V168.656Z" fill="#5E41F4"/>
<path d="M152.366 179.839H122.742V183.71H152.366V179.839Z" fill="#3ACDFF"/>
<path d="M275.054 179.839H169.731V183.71H275.054V179.839Z" fill="#5E41F4"/>
<path d="M184.516 191.075H122.742V194.946H184.516V191.075Z" fill="#5E41F4"/>
<path d="M275.054 191.075H201.936V194.946H275.054V191.075Z" fill="#FFA300"/>
<path d="M203.441 202.312H122.742V206.183H203.441V202.312Z" fill="#3ACDFF"/>
<path d="M275.108 202.312H220.914V206.183H275.108V202.312Z" fill="#FF288C"/>
<path d="M203.602 238.387L147.581 236.613C138.495 236.344 130.914 243.441 130.645 252.527C130.591 253.226 140 346.452 140 346.452L162.903 345.914L164.516 274.785L181.505 282.688L203.602 238.387Z" fill="#871FFF"/>
<path d="M132.688 358.602H162.957V345.968L140.054 346.505L131.237 355.161C130.86 355.538 130.645 356.075 130.645 356.613C130.645 357.688 131.559 358.602 132.688 358.602C132.634 358.602 132.634 358.602 132.688 358.602Z" fill="#131415"/>
<path d="M133.28 224.193C134.462 231.667 141.398 236.774 148.925 235.645C149.247 235.591 149.516 235.538 149.785 235.484L151.344 235.107C158.656 233.495 163.226 226.29 161.667 218.978C160.269 212.634 154.57 208.172 148.064 208.333L146.452 208.387C138.925 208.602 132.903 214.892 133.118 222.419C133.118 223.064 133.226 223.602 133.28 224.193Z" fill="#FCAC98"/>
<path d="M273.118 219.624C271.935 227.097 265 232.204 257.527 231.075C257.204 231.021 256.935 230.968 256.613 230.914L255.054 230.538C247.796 228.871 243.172 221.613 244.839 214.355C246.29 208.118 251.935 203.656 258.333 203.817L259.946 203.871C267.473 204.086 273.495 210.376 273.279 217.903C273.279 218.495 273.172 219.086 273.118 219.624Z" fill="#FCAC98"/>
<path d="M266.29 227.849L264.624 249.14L241.989 247.688L244.892 214.462H253.925C260.806 214.462 266.398 220 266.398 226.935C266.29 227.204 266.29 227.527 266.29 227.849Z" fill="white"/>
<path d="M167.097 248.71C161.828 263.118 168.817 283.065 185.161 282.634C197.742 282.312 198.656 282.796 203.925 282.688C220.753 282.258 231.882 264.892 226.667 248.871L167.097 248.71Z" fill="url(#paint1_linear)"/>
<path d="M256.774 232.151L264.57 249.086C267.903 256.344 264.677 264.839 257.473 268.172C257.366 268.226 257.258 268.226 257.15 268.28C251.236 270.806 244.355 269.086 240.322 264.086L217.957 236.344L222.581 191.29L233.172 200.484C243.172 209.247 251.236 220.054 256.774 232.151Z" fill="white"/>
<path d="M138.602 232.151L130.806 249.086C127.473 256.344 130.699 264.839 137.903 268.172C138.011 268.226 138.118 268.226 138.226 268.28C144.14 270.806 151.022 269.086 155.054 264.086L177.419 236.344L172.796 191.29L162.258 200.538C152.204 209.247 144.14 220.054 138.602 232.151Z" fill="white"/>
<path d="M205.914 198.71L219.946 189.785C219.946 189.785 214.247 186.075 204.516 186.183L205.914 198.71Z" fill="#2B2B2B"/>
<path d="M226.72 248.871C225.806 246.129 225.323 243.333 225.323 240.484C225.323 235.645 236.935 228.28 236.613 213.656C236.344 202.419 224.14 185.86 204.57 186.237L188.763 186.989C171.559 187.312 158.011 202.419 157.312 214.355H157.258C157.258 214.731 157.312 215 157.312 215.376C157.312 215.484 157.312 215.591 157.312 215.699C158.387 235.591 172.312 234.624 167.151 248.763L226.72 248.871Z" fill="white"/>
<path d="M226.344 247.419C226.183 247.419 225.968 247.366 225.86 247.204L220.107 240.108C219.892 239.892 219.946 239.462 220.161 239.301C220.376 239.086 220.806 239.14 220.968 239.355L226.72 246.452C226.935 246.667 226.882 247.097 226.667 247.258C226.613 247.366 226.505 247.419 226.344 247.419Z" fill="#2B2B2B"/>
<path d="M266.613 358.602H236.344V345.968L259.194 346.505L268.011 355.161C268.387 355.538 268.602 356.075 268.602 356.613C268.656 357.688 267.688 358.602 266.613 358.602Z" fill="#131415"/>
<path d="M169.174 317.126L165.118 358.218L172.876 358.983L176.932 317.891L169.174 317.126Z" fill="#131415"/>
<path d="M228.711 317.096L220.953 317.862L225.011 358.954L232.769 358.188L228.711 317.096Z" fill="#131415"/>
<path fill-rule="evenodd" clip-rule="evenodd" d="M170.699 319.57H227.151C236.989 319.57 245.161 311.935 245.86 302.151L246.583 291.526C251.171 291.708 255.171 288.218 255.538 283.602L255.914 279.032C256.289 274.319 252.769 270.139 248.064 269.736L248.817 258.656C248.871 258.226 248.871 257.796 248.871 257.366C248.871 246.989 240.43 238.602 230.108 238.602H167.742C167.312 238.602 166.882 238.602 166.452 238.656C156.129 239.355 148.333 248.28 149.032 258.602L149.793 269.786C145.03 269.919 141.345 273.994 141.559 278.71L141.774 283.28C141.882 288.065 145.968 291.774 150.699 291.559H150.753C150.927 291.551 151.099 291.539 151.27 291.521L151.989 302.097C152.688 311.935 160.86 319.57 170.699 319.57Z" fill="url(#paint2_linear)"/>
<path d="M321.505 355.376H46.7742C45.5865 355.376 44.6237 356.339 44.6237 357.527C44.6237 358.715 45.5865 359.677 46.7742 359.677H321.505C322.693 359.677 323.656 358.715 323.656 357.527C323.656 356.339 322.693 355.376 321.505 355.376Z" fill="#E1E2E6"/>
<path d="M54.4623 191.667L45.6451 187.581V185.376L54.4623 181.29V183.71L48.0107 186.452L54.4623 189.247V191.667Z" fill="#5E41F4"/>
<path d="M58.6559 194.355H56.1827L65.3225 175.591H67.7956L58.6559 194.355Z" fill="#5E41F4"/>
<path d="M69.4624 181.237L78.2796 185.323V187.527L69.4624 191.667V189.247L75.914 186.505L69.4624 183.71V181.237Z" fill="#5E41F4"/>
<path d="M158.602 49.1398C157.043 49.1398 156.022 50 156.129 51.5054L156.183 52.742C156.237 54.5699 155.43 55.914 153.764 56.5592C155.43 57.2043 156.237 58.5484 156.183 60.3764L156.129 61.6129C156.075 63.1183 157.043 63.9785 158.602 63.9785H159.14V66.2366H158.602C155.215 66.2366 153.441 64.3549 153.602 61.2903L153.656 60.0538C153.71 58.5484 152.742 57.6882 151.129 57.6882V55.4301C152.742 55.4301 153.71 54.5699 153.656 53.0645L153.602 51.828C153.441 48.8172 155.215 46.8817 158.602 46.8817H159.14V49.1398H158.602Z" fill="#FFA300"/>
<path d="M167.796 64.0322C169.355 64.0322 170.376 63.172 170.269 61.6666L170.215 60.4301C170.161 58.6021 170.968 57.258 172.634 56.6129C170.968 55.9677 170.161 54.6236 170.215 52.7957L170.269 51.5591C170.323 50.0537 169.355 49.1935 167.796 49.1935H167.258V46.9355H167.796C171.183 46.9355 172.957 48.8172 172.796 51.8817L172.742 53.1183C172.688 54.6236 173.656 55.4838 175.269 55.4838V57.7419C173.656 57.7419 172.688 58.6021 172.742 60.1075L172.796 61.3441C172.957 64.3548 171.183 66.2903 167.796 66.2903H167.258V64.0322H167.796Z" fill="#FFA300"/>
<path d="M43.871 96.9893C43.871 97.9033 43.1183 98.656 42.1506 98.656C41.1828 98.656 40.4839 97.9033 40.4839 96.9355C40.4839 96.0216 41.2366 95.2689 42.1506 95.2689C43.0645 95.2689 43.8172 96.0215 43.871 96.9893ZM43.3333 111.774H40.914V100.806H43.3333V111.774Z" fill="#D6219C"/>
<path d="M54.1935 103.011H50.4301V111.828H48.0107V103.011H45.8064V100.806H48.0107V98.9247C48.0107 96.7204 49.1397 94.9462 51.7204 94.9462C52.7956 94.9462 53.8709 95.215 54.7849 95.7527L53.9247 97.7957C53.2795 97.4193 52.5806 97.2043 51.8817 97.2043C50.9677 97.2043 50.4301 97.8494 50.4301 98.9247V100.806H54.1935V103.011Z" fill="#D6219C"/>
<path fill-rule="evenodd" clip-rule="evenodd" d="M355.538 189.785L356.075 187.581C355.554 187.372 354.983 187.315 354.459 187.263L354.409 187.258C353.226 187.204 352.097 187.742 351.452 188.656V187.527H349.247V197.688H351.452V192.15C351.452 190.43 352.473 189.409 353.871 189.409C354.462 189.409 355 189.57 355.538 189.785ZM345.753 197.688H343.548V196.505C342.796 197.473 341.613 198.011 340.376 197.957C337.527 197.957 335.323 195.753 335.323 192.634C335.323 189.516 337.527 187.312 340.376 187.312C341.613 187.258 342.796 187.796 343.548 188.763V187.581H345.753V197.688ZM337.634 192.634C337.634 194.409 338.817 195.914 340.699 195.914C342.527 195.914 343.763 194.516 343.763 192.634C343.763 190.753 342.527 189.355 340.699 189.355C338.763 189.409 337.634 190.806 337.634 192.634ZM330.161 197.688H327.581L323.495 187.527H325.914L328.925 195.376L331.935 187.527H334.247L330.161 197.688Z" fill="#FA7454"/>
<path d="M258.602 57.0968C258.602 57.3656 258.602 57.5806 258.548 57.8494H251.72C251.828 59.2473 253.065 60.3226 254.462 60.215C255.43 60.1613 256.344 59.8387 257.151 59.2473L258.172 60.6989C257.097 61.6129 255.753 62.043 254.355 61.9892C251.613 61.9892 249.624 60.0538 249.624 57.1505C249.624 54.2473 251.505 52.3118 254.247 52.3118C256.828 52.258 258.602 54.2473 258.602 57.0968ZM251.774 56.3441H256.559C256.344 54.8925 255.484 54.0322 254.247 54.0322C252.742 54.086 251.935 55 251.774 56.3441Z" fill="#5E41F4"/>
<path d="M263.118 61.7742H261.075V47.8495H263.118V61.7742Z" fill="#5E41F4"/>
<path d="M272.581 54.8387C271.72 54.3548 270.699 54.086 269.731 54.086C268.656 54.086 267.957 54.5161 267.957 55.1613C267.957 55.8064 268.602 55.9677 269.462 56.129L270.43 56.2903C272.473 56.5591 273.656 57.4193 273.656 59.0322C273.656 60.8064 272.097 62.043 269.462 62.043C268.065 62.0967 266.667 61.6666 265.484 60.8602L266.398 59.3548C267.258 60 268.333 60.3763 269.409 60.2688C270.753 60.2688 271.505 59.8387 271.505 59.1398C271.505 58.6559 271.022 58.2795 269.892 58.1183L268.925 58.0107C266.882 57.7419 265.753 56.7742 265.753 55.2688C265.753 53.4408 267.204 52.3118 269.57 52.3118C270.914 52.258 272.151 52.6344 273.28 53.2796L272.581 54.8387Z" fill="#5E41F4"/>
<path d="M284.409 57.0968C284.409 57.3656 284.409 57.5806 284.355 57.8494H277.527C277.634 59.2473 278.871 60.3226 280.269 60.215C281.237 60.1613 282.151 59.8387 282.957 59.2473L283.979 60.6989C282.903 61.6129 281.559 62.043 280.161 61.9892C277.419 61.9892 275.43 60.0538 275.43 57.1505C275.43 54.2473 277.312 52.3118 280 52.3118C282.581 52.258 284.355 54.2473 284.409 57.0968ZM277.527 56.3441H282.312C282.097 54.8925 281.237 54.0322 280 54.0322C278.495 54.086 277.688 55 277.527 56.3441Z" fill="#5E41F4"/>
<path d="M358.441 97.5806C358.441 98.8172 357.419 99.8387 356.183 99.8387C354.946 99.8387 353.925 98.8172 353.925 97.5806C353.925 96.3441 354.946 95.3226 356.183 95.3226C357.419 95.3763 358.387 96.3441 358.441 97.5806ZM357.903 104.57L356.344 111.667H354.032L354.731 104.57H357.903Z" fill="#80C7F5"/>
<ellipse cx="197.85" cy="160.753" rx="14.5161" ry="14.5161" fill="#FEC73A"/>
<path fill-rule="evenodd" clip-rule="evenodd" d="M365.279 30.2917C363.994 30.2917 362.809 30.7208 361.857 31.4439C359.867 24.1646 353.248 18.8172 345.387 18.8172C339.619 18.8172 334.519 21.6967 331.426 26.1059C330.638 25.9081 329.814 25.8015 328.965 25.8015C323.36 25.8015 318.817 30.3772 318.817 36.0215H328.305H339.113H359.589H362.469H370.968C370.968 32.857 368.421 30.2917 365.279 30.2917Z" fill="url(#paint3_linear)"/>
<path d="M320.511 315.398C301.013 315.398 284.374 327.607 277.829 344.789C275.851 344.011 273.697 343.578 271.442 343.578C261.809 343.578 254 351.378 254 361H274.857H288.884H366.166C366.166 335.814 345.725 315.398 320.511 315.398ZM388.575 288.998C387.008 288.998 385.555 289.484 384.357 290.311C382.21 286.471 378.104 283.872 373.387 283.872C368.616 283.872 364.466 286.53 362.341 290.445C359.819 282.643 352.492 277 343.842 277C333.107 277 324.406 285.692 324.406 296.414H360.831H363.278H381.149H385.944H396C396 292.319 392.675 288.998 388.575 288.998Z" fill="url(#paint4_linear)"/>
<defs>
<linearGradient id="paint0_linear" x1="97.5" y1="256" x2="97.5" y2="360" gradientUnits="userSpaceOnUse">
<stop stop-color="#80C8F6"/>
<stop offset="1" stop-color="white"/>
</linearGradient>
<linearGradient id="paint1_linear" x1="196.831" y1="249.567" x2="192.846" y2="480.225" gradientUnits="userSpaceOnUse">
<stop stop-color="#9774AC"/>
<stop offset="0.4" stop-color="#47A6D3"/>
<stop offset="0.5" stop-color="#A7A7AE"/>
<stop offset="0.59" stop-color="#E89AC0"/>
<stop offset="1" stop-color="#BFE7D1"/>
</linearGradient>
<linearGradient id="paint2_linear" x1="198.925" y1="238.71" x2="198.925" y2="319.355" gradientUnits="userSpaceOnUse">
<stop stop-color="#D5279B"/>
<stop offset="1" stop-color="#FEA18C"/>
</linearGradient>
<linearGradient id="paint3_linear" x1="321.349" y1="35.2693" x2="368.939" y2="35.2693" gradientUnits="userSpaceOnUse">
<stop stop-color="#8728FB"/>
<stop offset="1" stop-color="#FFA58B"/>
</linearGradient>
<linearGradient id="paint4_linear" x1="349.26" y1="277.004" x2="374.107" y2="344.433" gradientUnits="userSpaceOnUse">
<stop stop-color="#FFA68D"/>
<stop offset="1" stop-color="white"/>
</linearGradient>
</defs>
</svg>